<svg width="99" height="32" viewBox="0 0 99 32" fill="none" xmlns="http://www.w3.org/2000/svg">
<path d="M7.50455 3.95931C7.50455 4.91069 7.21281 5.67265 6.63807 6.24092C5.97726 6.91458 5.1166 7.25354 4.06194 7.25354C3.05395 7.25354 2.19329 6.90888 1.48726 6.22952C0.779769 5.5402 0.426758 4.69421 0.426758 3.68158C0.426758 2.66896 0.779769 1.82297 1.48726 1.13934C2.19329 0.454283 3.05395 0.109619 4.06194 0.109619C4.56374 0.109619 5.0422 0.210739 5.49879 0.398737C5.95391 0.58816 6.32443 0.84452 6.59284 1.1607L5.98309 1.76172C5.51484 1.22194 4.87737 0.955611 4.06194 0.955611C3.32673 0.955611 2.68926 1.20627 2.14807 1.71187C1.61271 2.2189 1.3443 2.87547 1.3443 3.68158C1.3443 4.48769 1.61271 5.14996 2.14807 5.65698C2.68926 6.15689 3.32673 6.41325 4.06194 6.41325C4.84236 6.41325 5.49879 6.15689 6.01665 5.65129C6.35799 5.31659 6.552 4.85514 6.60306 4.26551H4.06194V3.44231H7.45204C7.49288 3.62034 7.50455 3.79267 7.50455 3.95931Z" fill="white"/>
<path d="M12.8829 1.10515H9.69848V3.26997H12.5693V4.09317H9.69848V6.258H12.8829V7.09687H8.79698V0.266278H12.8829V1.10515Z" fill="white"/>
<path d="M16.6785 7.09687H15.777V1.10515H13.8238V0.266278H18.6332V1.10515H16.6785V7.09687Z" fill="white"/>
<path d="M22.1138 7.09687V0.266278H23.0138V7.09687H22.1138Z" fill="white"/>
<path d="M27.0035 7.09687H26.1093V1.10515H24.1487V0.266278H28.964V1.10515H27.0035V7.09687Z" fill="white"/>
<path d="M38.0695 6.21813C37.3795 6.90888 36.5247 7.25354 35.505 7.25354C34.4795 7.25354 33.6247 6.90888 32.9347 6.21813C32.2462 5.5288 31.9034 4.68281 31.9034 3.68158C31.9034 2.68035 32.2462 1.83436 32.9347 1.14503C33.6247 0.454282 34.4795 0.109619 35.505 0.109619C36.5189 0.109619 37.3737 0.454282 38.0637 1.15073C38.758 1.84575 39.1008 2.68605 39.1008 3.68158C39.1008 4.68281 38.758 5.5288 38.0695 6.21813ZM33.6014 5.64559C34.1207 6.15689 34.7523 6.41325 35.505 6.41325C36.2519 6.41325 36.8894 6.15689 37.4029 5.64559C37.9207 5.13429 38.1833 4.47773 38.1833 3.68158C38.1833 2.88544 37.9207 2.22887 37.4029 1.71757C36.8894 1.20628 36.2519 0.949913 35.505 0.949913C34.7523 0.949913 34.1207 1.20628 33.6014 1.71757C33.0835 2.22887 32.821 2.88544 32.821 3.68158C32.821 4.47773 33.0835 5.13429 33.6014 5.64559Z" fill="white"/>
<path d="M40.3655 7.09687V0.266278H41.4596L44.8614 5.57865H44.9008L44.8614 4.26551V0.266278H45.7614V7.09687H44.822L41.2597 1.52245H41.2204L41.2597 2.84128V7.09687H40.3655Z" fill="white"/>
<path d="M31.6821 17.0726C28.9411 17.0726 26.702 19.1092 26.702 21.9192C26.702 24.7065 28.9411 26.7645 31.6821 26.7645C34.4289 26.7645 36.6681 24.7065 36.6681 21.9192C36.6681 19.1092 34.4289 17.0726 31.6821 17.0726ZM31.6821 24.856C30.1781 24.856 28.8842 23.644 28.8842 21.9192C28.8842 20.1717 30.1781 18.9811 31.6821 18.9811C33.1861 18.9811 34.4858 20.1717 34.4858 21.9192C34.4858 23.644 33.1861 24.856 31.6821 24.856ZM20.816 17.0726C18.0692 17.0726 15.8358 19.1092 15.8358 21.9192C15.8358 24.7065 18.0692 26.7645 20.816 26.7645C23.5613 26.7645 25.7961 24.7065 25.7961 21.9192C25.7961 19.1092 23.5613 17.0726 20.816 17.0726ZM20.816 24.856C19.3105 24.856 18.0123 23.644 18.0123 21.9192C18.0123 20.1717 19.3105 18.9811 20.816 18.9811C22.3199 18.9811 23.6138 20.1717 23.6138 21.9192C23.6138 23.644 22.3199 24.856 20.816 24.856ZM7.88571 18.5581V20.6175H12.9227C12.7754 21.7683 12.3815 22.6143 11.7776 23.2039C11.0424 23.916 9.89731 24.7065 7.88571 24.7065C4.78589 24.7065 2.35855 22.2639 2.35855 19.2374C2.35855 16.2109 4.78589 13.7684 7.88571 13.7684C9.5618 13.7684 10.7813 14.4079 11.6813 15.2368L13.1678 13.7855C11.9089 12.6119 10.2343 11.7104 7.88571 11.7104C3.63495 11.7104 0.0625 15.0872 0.0625 19.2374C0.0625 23.3876 3.63495 26.7645 7.88571 26.7645C10.1832 26.7645 11.9089 26.0296 13.2655 24.6509C14.6557 23.2936 15.089 21.3852 15.089 19.8441C15.089 19.3656 15.0481 18.9255 14.9752 18.5581H7.88571ZM60.7591 20.1546C60.3492 19.0708 59.0845 17.0726 56.5084 17.0726C53.9556 17.0726 51.8302 19.0366 51.8302 21.9192C51.8302 24.6338 53.9337 26.7645 56.7534 26.7645C59.0334 26.7645 60.3492 25.4072 60.8904 24.6167L59.1983 23.5158C58.6337 24.3219 57.865 24.856 56.7534 24.856C55.6492 24.856 54.8571 24.3618 54.3494 23.3876L60.9881 20.7058L60.7591 20.1546ZM53.9906 21.7683C53.9337 19.8997 55.477 18.9426 56.5828 18.9426C57.4492 18.9426 58.1844 19.3656 58.4295 19.9709L53.9906 21.7683ZM48.5947 26.4696H50.777V12.2274H48.5947V26.4696ZM45.0208 18.1522H44.9479C44.4577 17.5853 43.5227 17.0726 42.3382 17.0726C39.8525 17.0726 37.5798 19.2032 37.5798 21.9349C37.5798 24.6509 39.8525 26.7645 42.3382 26.7645C43.5227 26.7645 44.4577 26.2475 44.9479 25.6635H45.0208V26.3586C45.0208 28.2115 44.007 29.207 42.3717 29.207C41.0384 29.207 40.2113 28.267 39.87 27.4766L37.9722 28.2499C38.5192 29.5346 39.9677 31.1155 42.3717 31.1155C44.9304 31.1155 47.0893 29.6457 47.0893 26.0694V17.3674H45.0208V18.1522ZM42.5249 24.856C41.0209 24.856 39.762 23.6269 39.762 21.9349C39.762 20.2273 41.0209 18.9811 42.5249 18.9811C44.007 18.9811 45.1754 20.2273 45.1754 21.9349C45.1754 23.6269 44.007 24.856 42.5249 24.856ZM70.9761 12.2274H65.7567V26.4696H67.9332V21.0733H70.9761C73.3932 21.0733 75.7637 19.3656 75.7637 16.6496C75.7637 13.935 73.3874 12.2274 70.9761 12.2274ZM71.033 19.0922H67.9332V14.2085H71.033C72.658 14.2085 73.5858 15.5259 73.5858 16.6496C73.5858 17.752 72.658 19.0922 71.033 19.0922ZM84.487 17.0455C82.9144 17.0455 81.2792 17.7235 80.6067 19.226L82.5381 20.0165C82.9538 19.226 83.7182 18.9697 84.5263 18.9697C85.6554 18.9697 86.8005 19.6319 86.818 20.8012V20.9508C86.4241 20.7286 85.581 20.3996 84.5438 20.3996C82.4637 20.3996 80.3441 21.5176 80.3441 23.6041C80.3441 25.5126 82.0479 26.7417 83.9633 26.7417C85.4278 26.7417 86.236 26.0965 86.7436 25.3459H86.818V26.4469H88.9201V20.9835C88.9201 18.4584 86.9887 17.0455 84.487 17.0455ZM84.2244 24.8503C83.5125 24.8503 82.5206 24.5056 82.5206 23.644C82.5206 22.5416 83.7576 22.1186 84.8283 22.1186C85.7867 22.1186 86.236 22.3251 86.818 22.5972C86.6473 23.916 85.4847 24.8503 84.2244 24.8503ZM96.5784 17.3574L94.0767 23.5315H94.0023L91.4159 17.3574H89.0688L92.9549 25.9854L90.7376 30.7865H93.0118L98.9999 17.3574H96.5784ZM76.9599 26.4696H79.1421V12.2274H76.9599V26.4696Z" fill="white"/>
</svg>
