<svg width="115" height="26" viewBox="0 0 115 26" fill="none" xmlns="http://www.w3.org/2000/svg">
<path d="M0.941406 25.8251H26.5914V0.175049H0.941406V25.8251ZM21.6544 10.532H16.2344V5.11205H21.6544V10.532ZM5.87741 5.11205H11.3004V15.468H21.6544V20.8881H5.87741V5.11205ZM43.2944 0.175049C40.7578 0.175049 38.2782 0.927229 36.1692 2.33646C34.0601 3.74569 32.4163 5.74868 31.4456 8.09215C30.4749 10.4356 30.221 13.0142 30.7158 15.502C31.2107 17.9898 32.4321 20.275 34.2257 22.0686C36.0193 23.8623 38.3045 25.0837 40.7923 25.5786C43.2802 26.0735 45.8588 25.8195 48.2023 24.8489C50.5458 23.8782 52.5487 22.2344 53.958 20.1252C55.3672 18.0161 56.1194 15.5365 56.1194 13C56.1154 9.59985 54.7629 6.34009 52.3586 3.9358C49.9543 1.5315 46.6946 0.179019 43.2944 0.175049ZM43.2944 20.8881C41.7343 20.8881 40.2092 20.4254 38.912 19.5586C37.6149 18.6919 36.6038 17.46 36.0068 16.0186C35.4098 14.5773 35.2536 12.9913 35.5579 11.4611C35.8623 9.93105 36.6136 8.52555 37.7167 7.42239C38.8199 6.31924 40.2254 5.56798 41.7555 5.26362C43.2856 4.95926 44.8716 5.11547 46.313 5.71249C47.7543 6.30951 48.9863 7.32054 49.853 8.61775C50.7198 9.91485 51.1824 11.4399 51.1824 13C51.1792 15.0911 50.3471 17.0956 48.8685 18.5742C47.3899 20.0528 45.3854 20.8848 43.2944 20.8881ZM102.013 0.175049C99.4764 0.174859 96.9971 0.926859 94.8879 2.33597C92.7787 3.74508 91.1348 5.748 90.1639 8.09145C89.1931 10.4348 88.9389 13.0136 89.4337 15.5014C89.9284 17.9893 91.1498 20.2747 92.9434 22.0683C94.7369 23.862 97.0221 25.0837 99.5104 25.5786C101.997 26.0735 104.576 25.8195 106.92 24.8489C109.263 23.8783 111.266 22.2344 112.675 20.1253C114.085 18.0162 114.837 15.5366 114.837 13C114.833 9.60005 113.481 6.34041 111.077 3.93615C108.673 1.53188 105.413 0.179289 102.013 0.175049ZM102.013 20.8881C100.453 20.8883 98.9284 20.4257 97.6308 19.5591C96.3335 18.6925 95.3223 17.4606 94.7251 16.0193C94.1279 14.578 93.9716 12.9919 94.2758 11.4617C94.5801 9.93165 95.3313 8.52605 96.4344 7.42275C97.5375 6.31949 98.9434 5.56813 100.473 5.26369C102.003 4.95925 103.589 5.1154 105.03 5.7124C106.472 6.30939 107.704 7.32041 108.571 8.61765C109.437 9.91485 109.9 11.4399 109.9 13C109.897 15.0909 109.065 17.0952 107.586 18.5738C106.108 20.0524 104.104 20.8846 102.013 20.8881ZM72.6534 0.175049C70.1168 0.175049 67.6372 0.927229 65.5282 2.33646C63.4191 3.74569 61.7753 5.74868 60.8046 8.09215C59.8339 10.4356 59.58 13.0142 60.0748 15.502C60.5697 17.9898 61.7911 20.275 63.5847 22.0686C65.3783 23.8623 67.6635 25.0837 70.1513 25.5786C72.6391 26.0735 75.2178 25.8195 77.5613 24.8489C79.9048 23.8782 81.9077 22.2344 83.317 20.1252C84.7262 18.0161 85.4784 15.5365 85.4784 13C85.4744 9.59985 84.1219 6.34009 81.7176 3.9358C79.3133 1.5315 76.0536 0.179019 72.6534 0.175049ZM72.6534 20.8881C71.1998 20.8888 69.7744 20.4879 68.5343 19.7295C67.2943 18.9712 66.2878 17.8852 65.6261 16.591C64.9645 15.2968 64.6732 13.8448 64.7846 12.3956C64.896 10.9463 65.4056 9.55605 66.2573 8.37815C67.109 7.20031 68.2696 6.28066 69.6109 5.72076C70.9523 5.16085 72.4223 4.98247 73.8586 5.20529C75.295 5.42812 76.6418 6.04348 77.7505 6.98347C78.8592 7.92345 79.6866 9.15155 80.1414 10.532H72.6534V15.468H80.1414C79.6205 17.0433 78.6169 18.4148 77.2728 19.3876C75.9288 20.3605 74.3126 20.8853 72.6534 20.8881Z" fill="#B4B7C9"/>
</svg>
