<svg width="1307" height="123" viewBox="0 0 1307 123" fill="none" xmlns="http://www.w3.org/2000/svg">
<rect width="1296" height="100" transform="translate(0 7)" fill="white"/>
<rect x="0.5" y="7.5" width="195" height="99" rx="7.5" fill="white"/>
<rect x="0.5" y="7.5" width="195" height="99" rx="7.5" stroke="#E2E5F1"/>
<path d="M41.9414 69.8251H67.5914V44.175H41.9414V69.8251ZM62.6544 54.532H57.2344V49.112H62.6544V54.532ZM46.8774 49.112H52.3004V59.468H62.6544V64.8881H46.8774V49.112ZM84.2944 44.175C81.7578 44.175 79.2782 44.9272 77.1692 46.3365C75.0601 47.7457 73.4163 49.7487 72.4456 52.0921C71.4749 54.4356 71.221 57.0142 71.7158 59.502C72.2107 61.9898 73.4321 64.275 75.2257 66.0686C77.0193 67.8623 79.3045 69.0837 81.7923 69.5786C84.2802 70.0735 86.8588 69.8195 89.2023 68.8489C91.5458 67.8782 93.5487 66.2344 94.958 64.1252C96.3672 62.0161 97.1194 59.5365 97.1194 57C97.1154 53.5998 95.7629 50.3401 93.3586 47.9358C90.9543 45.5315 87.6946 44.179 84.2944 44.175ZM84.2944 64.8881C82.7343 64.8881 81.2092 64.4254 79.912 63.5586C78.6149 62.6919 77.6038 61.46 77.0068 60.0186C76.4098 58.5773 76.2536 56.9913 76.5579 55.4611C76.8623 53.931 77.6136 52.5255 78.7167 51.4224C79.8199 50.3192 81.2254 49.568 82.7555 49.2636C84.2856 48.9593 85.8716 49.1155 87.313 49.7125C88.7543 50.3095 89.9863 51.3205 90.853 52.6177C91.7198 53.9148 92.1824 55.4399 92.1824 57C92.1792 59.0911 91.3471 61.0956 89.8685 62.5742C88.3899 64.0528 86.3854 64.8848 84.2944 64.8881ZM143.013 44.175C140.476 44.1749 137.997 44.9269 135.888 46.336C133.779 47.7451 132.135 49.748 131.164 52.0914C130.193 54.4348 129.939 57.0136 130.434 59.5014C130.928 61.9893 132.15 64.2747 133.943 66.0683C135.737 67.862 138.022 69.0837 140.51 69.5786C142.997 70.0735 145.576 69.8195 147.92 68.8489C150.263 67.8783 152.266 66.2344 153.675 64.1253C155.085 62.0162 155.837 59.5366 155.837 57C155.833 53.6 154.481 50.3404 152.077 47.9361C149.673 45.5319 146.413 44.1793 143.013 44.175ZM143.013 64.8881C141.453 64.8883 139.928 64.4257 138.631 63.5591C137.334 62.6925 136.322 61.4606 135.725 60.0193C135.128 58.578 134.972 56.9919 135.276 55.4617C135.58 53.9316 136.331 52.526 137.434 51.4227C138.538 50.3195 139.943 49.5681 141.473 49.2637C143.003 48.9592 144.589 49.1154 146.03 49.7124C147.472 50.3094 148.704 51.3204 149.571 52.6176C150.437 53.9148 150.9 55.4399 150.9 57C150.897 59.0909 150.065 61.0952 148.586 62.5738C147.108 64.0524 145.104 64.8846 143.013 64.8881ZM113.653 44.175C111.117 44.175 108.637 44.9272 106.528 46.3365C104.419 47.7457 102.775 49.7487 101.805 52.0921C100.834 54.4356 100.58 57.0142 101.075 59.502C101.57 61.9898 102.791 64.275 104.585 66.0686C106.378 67.8623 108.664 69.0837 111.151 69.5786C113.639 70.0735 116.218 69.8195 118.561 68.8489C120.905 67.8782 122.908 66.2344 124.317 64.1252C125.726 62.0161 126.478 59.5365 126.478 57C126.474 53.5998 125.122 50.3401 122.718 47.9358C120.313 45.5315 117.054 44.179 113.653 44.175ZM113.653 64.8881C112.2 64.8888 110.774 64.4879 109.534 63.7295C108.294 62.9712 107.288 61.8852 106.626 60.591C105.965 59.2968 105.673 57.8448 105.785 56.3956C105.896 54.9463 106.406 53.556 107.257 52.3781C108.109 51.2003 109.27 50.2807 110.611 49.7208C111.952 49.1608 113.422 48.9825 114.859 49.2053C116.295 49.4281 117.642 50.0435 118.751 50.9835C119.859 51.9234 120.687 53.1515 121.141 54.532H113.653V59.468H121.141C120.621 61.0433 119.617 62.4148 118.273 63.3876C116.929 64.3605 115.313 64.8853 113.653 64.8881Z" fill="#B4B7C9"/>
<rect x="220.5" y="7.5" width="195" height="99" rx="7.5" fill="white"/>
<rect x="220.5" y="7.5" width="195" height="99" rx="7.5" stroke="#E2E5F1"/>
<path d="M270.419 55.371C270.04 55.7523 269.75 56.2125 269.569 56.7187C269.388 57.225 269.321 57.7649 269.373 58.3L269.355 58.282C269.408 58.9119 269.323 59.5457 269.106 60.1394C268.889 60.733 268.545 61.2721 268.098 61.7191C267.651 62.166 267.112 62.5101 266.518 62.7271C265.925 62.9442 265.291 63.0292 264.661 62.976L264.679 62.994C263.926 62.9239 263.169 63.0878 262.512 63.4635C261.855 63.8392 261.33 64.4083 261.009 65.0933C260.687 65.7783 260.585 66.5457 260.715 67.2911C260.846 68.0364 261.203 68.7233 261.739 69.2581C262.274 69.7929 262.961 70.1496 263.707 70.2795C264.452 70.4095 265.219 70.3063 265.904 69.9842C266.589 69.662 267.157 69.1366 267.532 68.4794C267.908 67.8222 268.071 67.0654 268 66.312L268.019 66.33C267.966 65.7002 268.051 65.0663 268.268 64.4726C268.485 63.879 268.829 63.3399 269.276 62.8929C269.723 62.446 270.262 62.1019 270.856 61.8849C271.449 61.6678 272.083 61.5828 272.713 61.636L272.694 61.618C273.309 61.6733 273.929 61.5724 274.495 61.3246C275.061 61.0768 275.555 60.6901 275.932 60.2004C276.309 59.7107 276.556 59.1337 276.651 58.5231C276.745 57.9124 276.684 57.2878 276.473 56.707C276.262 56.1263 275.907 55.6083 275.442 55.201C274.978 54.7937 274.418 54.5103 273.814 54.3771C273.211 54.2439 272.584 54.2651 271.991 54.4388C271.398 54.6126 270.858 54.9332 270.422 55.371H270.419Z" fill="#B4B7C9"/>
<path d="M263.042 60.636L263.023 60.618C263.558 60.6719 264.099 60.6062 264.606 60.4256C265.113 60.245 265.573 59.9541 265.954 59.5738C266.334 59.1935 266.626 58.7333 266.807 58.2266C266.988 57.7199 267.054 57.1794 267 56.644L267.019 56.662C266.966 56.0321 267.051 55.3983 267.268 54.8046C267.485 54.211 267.829 53.6719 268.276 53.2249C268.723 52.778 269.262 52.4339 269.856 52.2169C270.449 51.9998 271.083 51.9148 271.713 51.968L271.694 51.95C272.448 52.0208 273.205 51.8574 273.862 51.4821C274.519 51.1068 275.044 50.538 275.366 49.8531C275.688 49.1682 275.791 48.4007 275.661 47.6552C275.531 46.9097 275.174 46.2225 274.639 45.6874C274.104 45.1522 273.416 44.7952 272.671 44.665C271.925 44.5347 271.158 44.6377 270.473 44.9597C269.788 45.2817 269.219 45.8071 268.844 46.4643C268.469 47.1215 268.305 47.8785 268.376 48.632L268.358 48.613C268.411 49.2429 268.327 49.8768 268.11 50.4705C267.893 51.0643 267.549 51.6035 267.102 52.0505C266.655 52.4974 266.115 52.8415 265.522 53.0585C264.928 53.2755 264.294 53.3603 263.664 53.307L263.682 53.326C263.147 53.2721 262.606 53.3378 262.099 53.5184C261.593 53.6989 261.132 53.9899 260.752 54.3702C260.371 54.7505 260.08 55.2107 259.899 55.7174C259.718 56.2241 259.652 56.7646 259.705 57.3L259.687 57.282C259.74 57.9118 259.655 58.5456 259.438 59.1392C259.221 59.7327 258.877 60.2718 258.43 60.7187C257.983 61.1656 257.444 61.5096 256.85 61.7268C256.257 61.9439 255.623 62.029 254.993 61.976L255.011 61.994C254.258 61.9232 253.501 62.0866 252.843 62.4619C252.186 62.8372 251.661 63.406 251.339 64.0909C251.017 64.7758 250.914 65.5433 251.044 66.2888C251.174 67.0343 251.531 67.7215 252.067 68.2566C252.602 68.7918 253.289 69.1488 254.034 69.279C254.78 69.4092 255.547 69.3063 256.232 68.9843C256.917 68.6623 257.486 68.1369 257.861 67.4797C258.237 66.8224 258.4 66.0655 258.329 65.312L258.348 65.33C258.295 64.7001 258.38 64.0663 258.597 63.4726C258.814 62.879 259.158 62.3399 259.605 61.8929C260.052 61.446 260.591 61.1019 261.185 60.8849C261.778 60.6678 262.412 60.5828 263.042 60.636Z" fill="#B4B7C9"/>
<path d="M256.34 58.6289C256.719 58.2477 257.009 57.7875 257.19 57.2812C257.371 56.7749 257.437 56.2349 257.385 55.6999L257.404 55.7179C257.351 55.0879 257.436 54.4538 257.653 53.86C257.87 53.2662 258.215 52.727 258.662 52.28C259.109 51.8331 259.648 51.4891 260.242 51.2721C260.836 51.0552 261.47 50.9705 262.1 51.0239L262.081 51.0059C262.834 51.0765 263.591 50.913 264.248 50.5378C264.905 50.1625 265.43 49.5938 265.752 48.9092C266.074 48.2245 266.177 47.4573 266.046 46.712C265.916 45.9668 265.559 45.2799 265.024 44.7449C264.489 44.21 263.802 43.8531 263.057 43.7229C262.312 43.5926 261.545 43.6954 260.86 44.0173C260.175 44.3391 259.607 44.8643 259.231 45.5212C258.856 46.1781 258.693 46.9347 258.763 47.6879L258.745 47.6699C258.798 48.2998 258.713 48.9337 258.496 49.5273C258.279 50.1209 257.935 50.66 257.488 51.107C257.041 51.554 256.502 51.898 255.909 52.115C255.315 52.3321 254.681 52.4171 254.051 52.3639L254.069 52.3819C253.454 52.3267 252.834 52.4278 252.268 52.6757C251.702 52.9236 251.208 53.3104 250.831 53.8002C250.455 54.2899 250.208 54.8669 250.113 55.4775C250.019 56.0882 250.08 56.7128 250.292 57.2934C250.503 57.8741 250.857 58.392 251.322 58.7992C251.787 59.2065 252.347 59.4898 252.95 59.623C253.553 59.7561 254.181 59.7348 254.774 59.5611C255.367 59.3873 255.906 59.0667 256.342 58.6289H256.34Z" fill="#B4B7C9"/>
<path d="M287.317 48.655H290.287V63.108H287.317V48.655Z" fill="#B4B7C9"/>
<path d="M291.969 58.1591C291.965 57.1205 292.269 56.1039 292.843 55.2383C293.417 54.3727 294.235 53.6969 295.193 53.2966C296.152 52.8962 297.207 52.7893 298.227 52.9894C299.246 53.1895 300.183 53.6875 300.919 54.4205C301.654 55.1534 302.156 56.0883 302.36 57.1067C302.565 58.1251 302.462 59.1812 302.065 60.1412C301.669 61.1011 300.996 61.9219 300.133 62.4993C299.27 63.0768 298.255 63.3851 297.216 63.3851C296.526 63.393 295.842 63.2633 295.204 63.0037C294.565 62.7441 293.984 62.3598 293.496 61.8733C293.007 61.3867 292.62 60.8076 292.358 60.1699C292.096 59.5322 291.964 58.8486 291.969 58.1591ZM299.493 58.1591C299.48 57.7114 299.336 57.2773 299.079 56.911C298.821 56.5448 298.461 56.2626 298.044 56.0999C297.626 55.9371 297.17 55.9009 296.733 55.9959C296.295 56.0909 295.895 56.3127 295.583 56.6338C295.271 56.9548 295.06 57.3608 294.977 57.801C294.894 58.2411 294.943 58.6959 295.117 59.1085C295.292 59.5211 295.584 59.8731 295.957 60.1206C296.33 60.3681 296.768 60.5001 297.216 60.5001C297.523 60.5083 297.828 60.4528 298.112 60.3372C298.396 60.2216 298.653 60.0484 298.867 59.8285C299.081 59.6085 299.247 59.3466 299.355 59.0593C299.463 58.772 299.51 58.4655 299.493 58.1591Z" fill="#B4B7C9"/>
<path d="M314.3 53.2091V62.6091C314.3 65.9351 311.706 67.3411 309.073 67.3411C308.146 67.4105 307.218 67.2232 306.39 66.7999C305.562 66.3765 304.867 65.7334 304.381 64.9411L306.915 63.4761C307.119 63.8891 307.445 64.2298 307.848 64.4527C308.252 64.6755 308.714 64.7699 309.172 64.7231C309.465 64.7637 309.763 64.7379 310.045 64.6476C310.327 64.5573 310.584 64.4048 310.799 64.2015C311.014 63.9981 311.18 63.7491 311.286 63.4727C311.391 63.1964 311.433 62.8999 311.409 62.6051V61.7001C311.061 62.1256 310.619 62.4637 310.116 62.6872C309.614 62.9107 309.067 63.0134 308.518 62.9871C307.212 62.9459 305.973 62.3981 305.063 61.4595C304.154 60.521 303.646 59.2654 303.646 57.9586C303.646 56.6518 304.154 55.3962 305.063 54.4577C305.973 53.5191 307.212 52.9713 308.518 52.9301C309.067 52.9038 309.614 53.0065 310.116 53.23C310.619 53.4535 311.061 53.7916 311.409 54.2171V53.2071L314.3 53.2091ZM311.41 57.9601C311.43 57.4815 311.306 57.0078 311.055 56.6001C310.803 56.1923 310.435 55.8692 309.999 55.6723C309.562 55.4753 309.076 55.4136 308.604 55.495C308.132 55.5764 307.695 55.7972 307.35 56.1291C307.004 56.4609 306.766 56.8885 306.665 57.3569C306.565 57.8253 306.607 58.3131 306.786 58.7574C306.965 59.2017 307.273 59.5823 307.67 59.8501C308.068 60.1179 308.536 60.2607 309.015 60.2601C309.327 60.2819 309.64 60.2381 309.934 60.1315C310.228 60.0249 310.497 59.8578 310.722 59.6412C310.948 59.4245 311.126 59.163 311.244 58.8734C311.363 58.5839 311.419 58.2728 311.41 57.9601Z" fill="#B4B7C9"/>
<path d="M315.982 58.1591C315.977 57.1205 316.282 56.1039 316.856 55.2383C317.43 54.3727 318.248 53.6969 319.206 53.2966C320.164 52.8962 321.22 52.7893 322.239 52.9894C323.258 53.1895 324.195 53.6875 324.931 54.4205C325.667 55.1534 326.169 56.0883 326.373 57.1067C326.577 58.1251 326.475 59.1812 326.078 60.1412C325.682 61.1011 325.009 61.9219 324.146 62.4993C323.282 63.0768 322.267 63.3851 321.229 63.3851C320.539 63.393 319.855 63.2633 319.216 63.0037C318.577 62.7441 317.997 62.3598 317.508 61.8733C317.02 61.3867 316.633 60.8076 316.371 60.1699C316.109 59.5322 315.976 58.8486 315.982 58.1591ZM323.506 58.1591C323.493 57.7114 323.349 57.2773 323.091 56.911C322.834 56.5448 322.474 56.2626 322.056 56.0999C321.639 55.9371 321.183 55.9009 320.745 55.9959C320.308 56.0909 319.908 56.3127 319.595 56.6338C319.283 56.9548 319.072 57.3608 318.99 57.801C318.907 58.2411 318.956 58.6959 319.13 59.1085C319.304 59.5211 319.596 59.8731 319.969 60.1206C320.343 60.3681 320.781 60.5001 321.229 60.5001C321.535 60.5083 321.84 60.4528 322.125 60.3372C322.409 60.2216 322.666 60.0484 322.88 59.8285C323.094 59.6085 323.26 59.3466 323.368 59.0593C323.475 58.772 323.522 58.4655 323.506 58.1591Z" fill="#B4B7C9"/>
<path d="M327.861 50.5559C327.861 50.2035 327.966 49.8589 328.162 49.5659C328.357 49.2729 328.636 49.0444 328.961 48.9096C329.287 48.7747 329.645 48.7394 329.991 48.8082C330.337 48.8769 330.654 49.0466 330.903 49.2959C331.153 49.5451 331.322 49.8626 331.391 50.2083C331.46 50.5539 331.425 50.9122 331.29 51.2379C331.155 51.5635 330.926 51.8418 330.633 52.0376C330.34 52.2334 329.996 52.3379 329.643 52.3379C329.172 52.3332 328.722 52.144 328.388 51.8108C328.055 51.4776 327.866 51.0271 327.861 50.5559ZM328.161 53.2089H331.132V63.1089H328.157L328.161 53.2089Z" fill="#B4B7C9"/>
<path d="M343.956 58.159C343.99 58.8133 343.895 59.4679 343.675 60.0852C343.456 60.7025 343.116 61.2703 342.676 61.756C342.237 62.2416 341.705 62.6356 341.113 62.9152C340.52 63.1947 339.878 63.3544 339.224 63.385C338.673 63.415 338.123 63.3222 337.613 63.1133C337.103 62.9043 336.646 62.5845 336.275 62.177V67.068H333.305V53.209H336.275V54.139C336.646 53.7318 337.103 53.4122 337.613 53.2035C338.123 52.9947 338.673 52.902 339.224 52.932C339.878 52.9625 340.52 53.1221 341.113 53.4017C341.706 53.6813 342.237 54.0753 342.677 54.5611C343.117 55.0469 343.456 55.6149 343.676 56.2324C343.895 56.8498 343.99 57.5046 343.956 58.159ZM340.986 58.159C340.974 57.6957 340.826 57.2461 340.56 56.8664C340.294 56.4868 339.922 56.194 339.491 56.0248C339.059 55.8555 338.588 55.8172 338.135 55.9148C337.681 56.0123 337.267 56.2413 336.944 56.5731C336.62 56.905 336.402 57.3248 336.315 57.7803C336.229 58.2357 336.279 58.7063 336.46 59.1334C336.64 59.5605 336.942 59.9249 337.328 60.1812C337.714 60.4374 338.167 60.5741 338.631 60.574C338.949 60.5882 339.266 60.5349 339.563 60.4177C339.859 60.3006 340.127 60.1221 340.349 59.8941C340.572 59.666 340.743 59.3936 340.853 59.0946C340.963 58.7956 341.008 58.4767 340.986 58.159Z" fill="#B4B7C9"/>
<path d="M353.121 60.1381C353.121 62.4151 351.142 63.3851 349.004 63.3851C348.14 63.4633 347.273 63.2807 346.514 62.8606C345.755 62.4406 345.14 61.8026 344.747 61.0291L347.32 59.5641C347.424 59.9216 347.648 60.2327 347.953 60.4452C348.259 60.6578 348.629 60.7591 349 60.7321C349.712 60.7321 350.069 60.5141 350.069 60.1191C350.069 59.0291 345.198 59.6041 345.198 56.1791C345.198 54.0201 347.02 52.9321 349.079 52.9321C349.853 52.9076 350.619 53.0912 351.298 53.4637C351.977 53.8363 352.544 54.3841 352.939 55.0501L350.405 56.4161C350.294 56.1568 350.109 55.9359 349.873 55.781C349.637 55.6261 349.361 55.5441 349.079 55.5451C348.564 55.5451 348.247 55.7451 348.247 56.0991C348.251 57.2281 353.121 56.4751 353.121 60.1381Z" fill="#B4B7C9"/>
<path d="M363.97 53.209V63.109H361V62.178C360.657 62.5888 360.222 62.9125 359.73 63.1225C359.238 63.3325 358.704 63.4228 358.17 63.386C356.17 63.386 354.47 61.961 354.47 59.286V53.209H357.44V58.851C357.415 59.0868 357.442 59.3252 357.519 59.5495C357.595 59.7739 357.72 59.9789 357.884 60.1502C358.048 60.3215 358.247 60.455 358.468 60.5415C358.688 60.628 358.925 60.6654 359.162 60.651C360.251 60.651 361.003 60.018 361.003 58.612V53.212L363.97 53.209Z" fill="#B4B7C9"/>
<path d="M381 57.03V63.108H378.03V57.287C378.03 56.297 377.555 55.664 376.605 55.664C375.615 55.664 375.06 56.357 375.06 57.525V63.108H372.091V57.287C372.091 56.297 371.616 55.664 370.665 55.664C369.675 55.664 369.121 56.357 369.121 57.525V63.108H366.151V53.208H369.121V54.118C369.429 53.7143 369.833 53.3941 370.296 53.1868C370.76 52.9794 371.268 52.8915 371.774 52.931C372.282 52.9061 372.788 53.0134 373.243 53.2423C373.697 53.4711 374.084 53.8139 374.367 54.237C374.696 53.7943 375.132 53.4423 375.634 53.2139C376.136 52.9855 376.688 52.8882 377.238 52.931C379.511 52.932 381 54.555 381 57.03Z" fill="#B4B7C9"/>
<path d="M383.512 53.148C384.729 53.148 385.716 52.1612 385.716 50.944C385.716 49.7268 384.729 48.74 383.512 48.74C382.295 48.74 381.308 49.7268 381.308 50.944C381.308 52.1612 382.295 53.148 383.512 53.148Z" fill="#B4B7C9"/>
<rect x="440.5" y="7.5" width="195" height="99" rx="7.5" fill="white"/>
<rect x="440.5" y="7.5" width="195" height="99" rx="7.5" stroke="#E2E5F1"/>
<path d="M537.693 64.3741H532.573V50.6861H537.693V64.3741ZM533.073 63.8741H537.193V51.1861H533.073V63.8741ZM544.817 64.3741H539.8V50.6861H550.282C551.784 50.5645 553.279 50.9861 554.496 51.8741C555.02 52.3534 555.426 52.9473 555.683 53.6094C555.939 54.2715 556.039 54.9839 555.975 55.6911C556.05 56.9131 555.661 58.1183 554.886 59.0661C553.969 60.1181 552.443 60.6601 550.351 60.6791C549.824 60.6931 545.875 60.6791 544.82 60.6791L544.817 64.3741ZM540.297 63.8741H544.317V60.1741H544.568C544.619 60.1741 549.746 60.1901 550.339 60.1741C552.288 60.1571 553.689 59.6741 554.508 58.7311C555.198 57.8736 555.54 56.7883 555.468 55.6901C555.53 55.0565 555.444 54.4172 555.219 53.8218C554.993 53.2265 554.634 52.6911 554.168 52.2571C553.04 51.4472 551.659 51.067 550.275 51.1851H540.3L540.297 63.8741ZM549.22 57.6041H544.283V53.8781H549.253C549.605 53.8294 549.964 53.8705 550.296 53.9976C550.629 54.1247 550.923 54.3337 551.153 54.6051C551.362 54.952 551.46 55.3541 551.435 55.7581C551.454 56.1332 551.373 56.5066 551.2 56.8401C550.963 57.126 550.656 57.3461 550.309 57.4792C549.963 57.6123 549.588 57.6539 549.22 57.6001V57.6041ZM544.783 57.1041H549.22C550.04 57.1041 550.548 56.9331 550.773 56.5811C550.897 56.3253 550.953 56.0419 550.936 55.7581C550.958 55.4602 550.893 55.1622 550.75 54.9001L550.744 54.8911C550.506 54.5411 550.033 54.3781 549.253 54.3781H544.783V57.1041ZM565.1 64.5761C560.61 64.5761 557.93 63.4611 556.909 61.1681C556.742 60.7252 556.629 60.2639 556.571 59.7941L556.527 59.5061H561.869L561.904 59.7161C561.945 59.9293 562.036 60.13 562.168 60.3021C562.379 60.5571 563.083 60.9851 565.419 60.9851C568.227 60.9851 568.227 60.4921 568.227 60.2271C568.227 59.7801 567.902 59.6271 565.612 59.3831L565.177 59.3421C564.315 59.2611 563.225 59.1581 562.727 59.1151C558.527 58.7351 556.652 57.4301 556.652 54.8851C556.652 52.2121 559.843 50.4851 564.782 50.4851C568.811 50.4851 571.407 51.5471 572.496 53.6441C572.754 54.1319 572.928 54.6601 573.009 55.2061L573.044 55.4871H567.696L567.674 55.2611C567.653 55.0845 567.578 54.9188 567.458 54.7871C567.258 54.5191 566.626 54.0761 564.664 54.0761C562.255 54.0761 561.923 54.3841 561.923 54.7161C561.923 55.1591 562.684 55.3161 565.123 55.5771C566.14 55.6601 567.775 55.8281 568.335 55.8961C571.856 56.2781 573.427 57.5511 573.427 60.0251C573.428 62.1001 571.983 64.5761 565.1 64.5761ZM557.111 60.0061C557.161 60.3359 557.247 60.6591 557.368 60.9701C558.298 63.0591 560.828 64.0761 565.1 64.0761C568.672 64.0761 572.931 63.3761 572.931 60.0251C572.931 57.8321 571.541 56.7461 568.282 56.3931C567.722 56.3251 566.097 56.1581 565.082 56.0741C562.482 55.7921 561.425 55.6421 561.425 54.7161C561.425 53.7581 562.564 53.5761 564.666 53.5761C566.327 53.5761 567.4 53.8761 567.855 54.4811C567.979 54.6302 568.073 54.8021 568.131 54.9871H572.465C572.378 54.6004 572.24 54.2268 572.055 53.8761C571.055 51.9571 568.612 50.9851 564.784 50.9851C560.149 50.9851 557.154 52.5161 557.154 54.8851C557.154 57.1451 558.835 58.2611 562.773 58.6171C563.273 58.6601 564.362 58.7631 565.226 58.8451L565.664 58.8861C567.791 59.1101 568.729 59.2501 568.729 60.2271C568.729 61.2791 567.516 61.4851 565.421 61.4851C563.483 61.4851 562.259 61.1941 561.786 60.6211C561.64 60.4384 561.53 60.2297 561.462 60.0061H557.111ZM582.927 64.5591C577.707 64.5591 574.827 62.4481 574.827 58.6141V50.6861H579.879V58.6141C579.879 59.9291 581.056 60.6831 583.107 60.6831C585.067 60.6831 586.284 59.8961 586.284 58.6311V50.6861H591.284V59.0341C591.289 62.5451 588.24 64.5591 582.924 64.5591H582.927ZM575.327 51.1861V58.6141C575.327 63.3521 580.085 64.0591 582.927 64.0591C585.865 64.0591 590.792 63.4061 590.792 59.0341V51.1861H586.792V58.6311C586.792 60.1811 585.348 61.1831 583.115 61.1831C580.781 61.1831 579.387 60.2231 579.387 58.6141V51.1861H575.327ZM612.472 64.3741H607.704V58.1941L605 64.3741H600.841L598.165 58.2061V64.3741H593.38V50.6861H599.674L602.944 58.2331L606.372 50.6861H612.478L612.472 64.3741ZM608.204 63.8741H611.972V51.1861H606.69L602.928 59.4651L599.342 51.1861H593.876V63.8741H597.661V55.8001L601.161 63.8771H604.661L608.198 55.8121L608.204 63.8741ZM468.054 50.9361H463.5V64.1241H476.084V60.6131H468.054V50.9361ZM485.276 50.6361C479.463 50.6361 476.406 53.3911 476.406 57.4361C476.406 62.0061 479.615 64.3241 485.276 64.3241C491.508 64.3241 494.129 61.6361 494.129 57.4361C494.129 53.1711 491.172 50.6341 485.276 50.6341V50.6361ZM485.259 54.0631C485.655 54.0612 486.05 54.0843 486.443 54.1321L481.352 59.2231C481.111 58.6782 480.994 58.0867 481.008 57.4911C481.008 55.4221 482.05 54.0611 485.259 54.0611V54.0631ZM485.276 60.9511C484.895 60.9528 484.514 60.9314 484.135 60.8871L489.235 55.7871C489.467 56.323 489.578 56.9034 489.56 57.4871C489.56 59.5001 488.6 60.9491 485.276 60.9491V60.9511ZM503.152 59.1511H507.839C507.77 59.4764 507.626 59.7811 507.419 60.0411C506.447 60.8327 505.207 61.2179 503.958 61.1161C503.329 61.1834 502.693 61.1147 502.093 60.9147C501.494 60.7148 500.944 60.3882 500.481 59.9571C500.007 59.262 499.782 58.4272 499.842 57.5881C499.765 56.7088 500.01 55.8316 500.531 55.1191C501.186 54.3791 502.295 54.0601 503.925 54.0601C504.962 53.9742 505.998 54.2406 506.865 54.8161C507.138 55.0332 507.343 55.325 507.453 55.6561H511.8C511.768 55.1106 511.637 54.5754 511.413 54.0771C510.372 51.9601 507.952 50.7001 503.837 50.7001C500.258 50.7001 497.856 51.7921 496.529 53.4391C495.653 54.6285 495.203 56.0785 495.252 57.5551C495.195 59.0651 495.634 60.5522 496.5 61.7901C497.811 63.4901 500.146 64.3261 502.952 64.3261C504.818 64.4562 506.67 63.9337 508.193 62.8481L508.311 64.1241H511.922V56.3121H503.152V59.1511ZM522.171 50.6331C516.359 50.6331 513.301 53.3881 513.301 57.4331C513.301 62.0031 516.509 64.3211 522.171 64.3211C528.404 64.3211 531.025 61.6331 531.025 57.4331C531.025 53.1711 528.068 50.6341 522.171 50.6341V50.6331ZM522.155 54.0601C522.54 54.059 522.925 54.081 523.308 54.1261L518.237 59.2001C518.004 58.6612 517.89 58.0782 517.904 57.4911C517.9 55.4221 518.946 54.0611 522.155 54.0611V54.0601ZM522.171 60.9481C521.78 60.9498 521.389 60.927 521 60.8801L526.117 55.7621C526.358 56.3051 526.473 56.8954 526.454 57.4891C526.456 59.5001 525.5 60.9491 522.171 60.9491V60.9481Z" fill="#B4B7C9"/>
<rect x="660.5" y="7.5" width="195" height="99" rx="7.5" fill="white"/>
<rect x="660.5" y="7.5" width="195" height="99" rx="7.5" stroke="#E2E5F1"/>
<path d="M706.45 46.6499V42.3999H693.05V71.5999H706.45V67.3499C703.705 67.3499 701.072 66.2594 699.131 64.3184C697.19 62.3774 696.1 59.7449 696.1 56.9999C696.1 54.2549 697.19 51.6223 699.131 49.6814C701.072 47.7404 703.705 46.6499 706.45 46.6499Z" fill="#B4B7C9"/>
<path d="M706.45 46.6499V67.3499C709.195 67.3499 711.828 66.2594 713.769 64.3184C715.71 62.3774 716.8 59.7449 716.8 56.9999C716.8 54.2549 715.71 51.6223 713.769 49.6814C711.828 47.7404 709.195 46.6499 706.45 46.6499Z" fill="#B4B7C9"/>
<path d="M724.32 49.25H727.32V63.7H724.32V49.25Z" fill="#B4B7C9"/>
<path d="M729 58.7499C729 57.7103 729.309 56.6941 729.887 55.8301C730.466 54.9661 731.287 54.2932 732.248 53.8967C733.209 53.5003 734.267 53.3981 735.286 53.6031C736.305 53.8081 737.24 54.3111 737.973 55.0483C738.706 55.7856 739.204 56.7238 739.403 57.7442C739.602 58.7646 739.494 59.8211 739.092 60.7799C738.69 61.7386 738.013 62.5565 737.145 63.1297C736.278 63.703 735.26 64.0058 734.22 63.9999C733.531 64.0053 732.847 63.873 732.21 63.6106C731.572 63.3483 730.993 62.9613 730.507 62.4724C730.02 61.9834 729.637 61.4022 729.378 60.763C729.12 60.1238 728.991 59.4394 729 58.7499ZM736.52 58.7499C736.509 58.3017 736.365 57.8669 736.107 57.5C735.85 57.133 735.49 56.8501 735.072 56.6867C734.655 56.5233 734.198 56.4866 733.76 56.5813C733.322 56.6759 732.921 56.8976 732.608 57.2188C732.295 57.5399 732.084 57.9461 732.001 58.3867C731.918 58.8273 731.966 59.2826 732.14 59.6957C732.315 60.1088 732.607 60.4615 732.98 60.7094C733.354 60.9574 733.792 61.0897 734.24 61.0899C734.546 61.0959 734.849 61.0388 735.131 60.9222C735.413 60.8057 735.668 60.6322 735.881 60.4126C736.093 60.193 736.257 59.9319 736.364 59.6459C736.471 59.3598 736.517 59.0548 736.5 58.7499H736.52Z" fill="#B4B7C9"/>
<path d="M751.31 53.8001V63.2101C751.31 66.5301 748.71 67.9401 746.08 67.9401C745.153 68.0162 744.222 67.8319 743.394 67.4079C742.565 66.9839 741.871 66.337 741.39 65.5401L743.92 64.0801C744.125 64.4935 744.451 64.8345 744.855 65.0578C745.259 65.2811 745.721 65.3761 746.18 65.3301C746.473 65.3661 746.77 65.3371 747.049 65.2451C747.329 65.153 747.586 65.0003 747.8 64.7977C748.014 64.5951 748.18 64.3478 748.288 64.0733C748.395 63.7989 748.44 63.5041 748.42 63.2101V62.3001C748.071 62.7234 747.628 63.0594 747.127 63.2816C746.625 63.5038 746.078 63.606 745.53 63.5801C744.204 63.5801 742.932 63.0533 741.995 62.1156C741.057 61.178 740.53 59.9062 740.53 58.5801C740.53 57.254 741.057 55.9823 741.995 55.0446C742.932 54.1069 744.204 53.5801 745.53 53.5801C746.078 53.5542 746.625 53.6564 747.127 53.8786C747.628 54.1008 748.071 54.4368 748.42 54.8601V53.8601L751.31 53.8001ZM748.42 58.5501C748.44 58.0717 748.317 57.5982 748.065 57.1906C747.814 56.783 747.447 56.4599 747.01 56.2628C746.574 56.0657 746.088 56.0037 745.616 56.0847C745.144 56.1657 744.707 56.386 744.362 56.7173C744.016 57.0486 743.777 57.4758 743.676 57.9439C743.575 58.412 743.617 58.8995 743.795 59.3439C743.973 59.7883 744.281 60.1692 744.677 60.4376C745.074 60.706 745.541 60.8497 746.02 60.8501C746.333 60.8726 746.646 60.8293 746.941 60.7231C747.236 60.6168 747.505 60.4499 747.731 60.2331C747.957 60.0164 748.135 59.7546 748.254 59.4647C748.373 59.1748 748.429 58.8632 748.42 58.5501Z" fill="#B4B7C9"/>
<path d="M753 58.75C753 57.7112 753.309 56.6958 753.886 55.8322C754.463 54.9686 755.284 54.2957 756.244 53.8987C757.203 53.5016 758.26 53.3982 759.278 53.6016C760.297 53.805 761.232 54.306 761.966 55.0412C762.7 55.7765 763.199 56.7129 763.401 57.7319C763.602 58.751 763.497 59.8069 763.098 60.766C762.699 61.7252 762.024 62.5444 761.16 63.1201C760.295 63.6958 759.279 64.002 758.24 64C757.55 64.0067 756.864 63.8754 756.225 63.6138C755.585 63.3522 755.005 62.9656 754.517 62.4766C754.029 61.9876 753.643 61.4061 753.383 60.7662C753.122 60.1263 752.992 59.4408 753 58.75ZM760.52 58.75C760.509 58.3014 760.365 57.8662 760.107 57.499C759.849 57.1319 759.488 56.849 759.07 56.6859C758.652 56.5228 758.195 56.4867 757.756 56.5822C757.318 56.6776 756.917 56.9004 756.605 57.2225C756.292 57.5446 756.082 57.9518 756 58.393C755.918 58.8342 755.967 59.2898 756.143 59.7027C756.319 60.1157 756.613 60.4676 756.987 60.7144C757.362 60.9611 757.802 61.0918 758.25 61.09C758.556 61.096 758.859 61.0389 759.141 60.9223C759.423 60.8058 759.678 60.6323 759.89 60.4127C760.103 60.1931 760.267 59.932 760.374 59.646C760.48 59.3599 760.527 59.0549 760.51 58.75H760.52Z" fill="#B4B7C9"/>
<path d="M764.87 51.1501C764.87 50.7981 764.975 50.4539 765.17 50.1612C765.366 49.8685 765.644 49.6403 765.969 49.5056C766.294 49.3709 766.652 49.3356 766.997 49.4043C767.343 49.473 767.66 49.6425 767.909 49.8915C768.158 50.1404 768.327 50.4576 768.396 50.8028C768.465 51.1481 768.429 51.506 768.295 51.8313C768.16 52.1565 767.932 52.4345 767.639 52.6301C767.346 52.8257 767.002 52.9301 766.65 52.9301C766.18 52.9249 765.73 52.7357 765.397 52.403C765.065 52.0703 764.875 51.6206 764.87 51.1501ZM765.16 53.8001H768.16V63.7001H765.16V53.8001Z" fill="#B4B7C9"/>
<path d="M781 58.7501C781.034 59.4085 780.937 60.0671 780.715 60.6879C780.493 61.3087 780.151 61.8795 779.708 62.3674C779.264 62.8554 778.729 63.2508 778.132 63.531C777.535 63.8112 776.889 63.9706 776.23 64.0001C775.672 64.0373 775.111 63.9478 774.592 63.7383C774.073 63.5287 773.607 63.2046 773.23 62.7901V67.6801H770.23V53.8001H773.23V54.7301C773.608 54.3168 774.073 53.9942 774.593 53.7864C775.112 53.5785 775.672 53.4909 776.23 53.5301C776.886 53.5596 777.53 53.7181 778.125 53.9964C778.72 54.2747 779.254 54.6675 779.697 55.1522C780.14 55.6369 780.483 56.2041 780.706 56.8215C780.93 57.4388 781.03 58.0941 781 58.7501ZM778 58.7501C777.989 58.2856 777.84 57.835 777.573 57.4547C777.306 57.0744 776.933 56.7812 776.5 56.6121C776.068 56.4429 775.595 56.4053 775.141 56.5038C774.687 56.6023 774.272 56.8327 773.948 57.166C773.624 57.4993 773.406 57.9207 773.321 58.3775C773.236 58.8342 773.288 59.3059 773.469 59.7335C773.651 60.161 773.955 60.5254 774.343 60.781C774.731 61.0366 775.186 61.1719 775.65 61.1701C775.969 61.1836 776.286 61.1297 776.582 61.0119C776.878 60.8941 777.146 60.7151 777.368 60.4866C777.59 60.2581 777.761 59.9852 777.87 59.686C777.979 59.3867 778.023 59.0678 778 58.7501Z" fill="#B4B7C9"/>
<path d="M790.13 60.73C790.13 63.01 788.13 63.98 786.01 63.98C785.145 64.0578 784.277 63.8745 783.518 63.4538C782.758 63.0331 782.143 62.3943 781.75 61.62L784.33 60.16C784.432 60.5168 784.654 60.8277 784.958 61.0407C785.262 61.2537 785.63 61.3558 786 61.33C786.71 61.33 787.07 61.11 787.07 60.71C787.07 59.62 782.2 60.2 782.2 56.77C782.2 54.61 784.02 53.53 786.08 53.53C786.863 53.4949 787.641 53.6726 788.331 54.0441C789.021 54.4156 789.598 54.9671 790 55.64L787.42 57C787.306 56.742 787.12 56.5226 786.884 56.3682C786.648 56.2138 786.372 56.1311 786.09 56.13C785.57 56.13 785.26 56.33 785.26 56.68C785.26 57.82 790.13 57.07 790.13 60.73Z" fill="#B4B7C9"/>
<path d="M801 53.8V63.7H798V62.77C797.659 63.1817 797.226 63.5074 796.737 63.7211C796.247 63.9348 795.714 64.0303 795.18 64C793.18 64 791.47 62.57 791.47 59.9V53.8H794.47V59.45C794.446 59.6862 794.474 59.9247 794.552 60.1491C794.63 60.3734 794.755 60.5782 794.919 60.7494C795.084 60.9205 795.284 61.0539 795.505 61.1404C795.726 61.2268 795.963 61.2642 796.2 61.25C797.28 61.25 798.04 60.61 798.04 59.25V53.8H801Z" fill="#B4B7C9"/>
<path d="M818 57.62V63.7H815V57.88C815 56.88 814.53 56.26 813.58 56.26C812.63 56.26 812.03 56.95 812.03 58.12V63.7H809.03V57.88C809.03 56.88 808.56 56.26 807.61 56.26C806.66 56.26 806.06 56.95 806.06 58.12V63.7H803.06V53.8H806.06V54.71C806.371 54.308 806.776 53.9896 807.241 53.7836C807.705 53.5776 808.214 53.4904 808.72 53.53C809.227 53.5035 809.733 53.6095 810.187 53.8374C810.641 54.0653 811.028 54.4074 811.31 54.83C811.64 54.3884 812.076 54.0376 812.578 53.8103C813.079 53.5829 813.631 53.4865 814.18 53.53C816.52 53.53 818 55.15 818 57.62Z" fill="#B4B7C9"/>
<path d="M820.52 53.7401C821.735 53.7401 822.72 52.7551 822.72 51.5401C822.72 50.3251 821.735 49.3401 820.52 49.3401C819.305 49.3401 818.32 50.3251 818.32 51.5401C818.32 52.7551 819.305 53.7401 820.52 53.7401Z" fill="#B4B7C9"/>
<rect x="880.5" y="7.5" width="195" height="99" rx="7.5" fill="white"/>
<rect x="880.5" y="7.5" width="195" height="99" rx="7.5" stroke="#E2E5F1"/>
<path d="M952.87 51.0699H955.87V63.1999H952.87V51.0699ZM957.06 58.6199C957.06 55.6199 958.9 53.8299 961.74 53.8299C964.58 53.8299 966.42 55.6199 966.42 58.6199C966.42 61.6199 964.62 63.4199 961.74 63.4199C958.86 63.4199 957.06 61.6699 957.06 58.6199ZM963.41 58.6199C963.41 56.9699 962.76 55.9999 961.74 55.9999C960.72 55.9999 960.08 56.9999 960.08 58.6199C960.08 60.2399 960.71 61.2199 961.74 61.2199C962.77 61.2199 963.41 60.2999 963.41 58.6299V58.6199ZM967.55 63.7899H970.43C970.567 64.0944 970.799 64.3465 971.091 64.5087C971.383 64.6708 971.719 64.7344 972.05 64.6899C973.19 64.6899 973.79 64.0699 973.79 63.1699V61.4899H973.73C973.491 62.0048 973.103 62.4362 972.617 62.7286C972.13 63.0209 971.567 63.1607 971 63.1299C968.81 63.1299 967.36 61.4599 967.36 58.5899C967.36 55.7199 968.74 53.9099 971.04 53.9099C971.625 53.887 972.202 54.0433 972.696 54.3578C973.189 54.6724 973.574 55.1302 973.8 55.6699V53.9999H976.8V63.0999C976.8 65.2899 974.87 66.6499 972.02 66.6499C969.37 66.6499 967.72 65.4599 967.55 63.7999V63.7899ZM973.8 58.6099C973.8 57.1499 973.13 56.2299 972.07 56.2299C971.01 56.2299 970.36 57.1399 970.36 58.6099C970.36 60.0799 971 60.9099 972.07 60.9099C973.14 60.9099 973.8 60.0999 973.8 58.6199V58.6099ZM977.93 58.6099C977.93 55.6099 979.77 53.8199 982.61 53.8199C985.45 53.8199 987.3 55.6099 987.3 58.6099C987.3 61.6099 985.5 63.4099 982.61 63.4099C979.72 63.4099 977.93 61.6699 977.93 58.6199V58.6099ZM984.28 58.6099C984.28 56.9599 983.63 55.9899 982.61 55.9899C981.59 55.9899 981 56.9999 981 58.6299C981 60.2599 981.63 61.2299 982.65 61.2299C983.67 61.2299 984.28 60.2999 984.28 58.6299V58.6099ZM988.44 51.8199C988.432 51.517 988.515 51.2186 988.676 50.9625C988.838 50.7064 989.073 50.5042 989.35 50.3814C989.627 50.2587 989.934 50.2209 990.232 50.273C990.531 50.325 990.807 50.4646 991.026 50.6738C991.246 50.8831 991.398 51.1527 991.463 51.4485C991.529 51.7443 991.505 52.0529 991.395 52.3353C991.285 52.6176 991.094 52.861 990.846 53.0345C990.597 53.208 990.303 53.3039 990 53.3099C989.799 53.3237 989.598 53.2958 989.408 53.228C989.219 53.1602 989.045 53.054 988.899 52.9159C988.752 52.7779 988.636 52.611 988.557 52.4258C988.478 52.2407 988.438 52.0412 988.44 51.8399V51.8199ZM988.44 54.0199H991.44V63.1999H988.44V54.0199ZM1002.33 58.6099C1002.33 61.6099 1001 63.3199 998.72 63.3199C998.136 63.3574 997.553 63.2145 997.053 62.9105C996.552 62.6064 996.157 62.1559 995.92 61.6199H995.86V66.1399H992.86V53.9999H995.86V55.6399H995.92C996.146 55.095 996.533 54.6328 997.031 54.3161C997.528 53.9994 998.111 53.8436 998.7 53.8699C1001 53.9099 1002.37 55.6299 1002.37 58.6299L1002.33 58.6099ZM999.33 58.6099C999.33 57.1499 998.66 56.2199 997.61 56.2199C996.56 56.2199 995.89 57.1599 995.88 58.6099C995.87 60.0599 996.56 60.9899 997.61 60.9899C998.66 60.9899 999.33 60.0799 999.33 58.6299V58.6099ZM1007.48 53.8099C1009.97 53.8099 1011.48 54.9899 1011.55 56.8799H1008.82C1008.82 56.2299 1008.28 55.8199 1007.45 55.8199C1006.62 55.8199 1006.25 56.1399 1006.25 56.6099C1006.25 57.0799 1006.58 57.2299 1007.25 57.3699L1009.17 57.7599C1011 58.1499 1011.78 58.8899 1011.78 60.2799C1011.78 62.1799 1010.05 63.3999 1007.5 63.3999C1004.95 63.3999 1003.28 62.1799 1003.15 60.3099H1006.04C1006.13 60.9899 1006.67 61.3899 1007.55 61.3899C1008.43 61.3899 1008.83 61.0999 1008.83 60.6199C1008.83 60.1399 1008.55 60.0399 1007.83 59.8899L1006.1 59.5199C1004.31 59.1499 1003.37 58.1999 1003.37 56.7999C1003.39 54.9999 1005 53.8299 1007.48 53.8299V53.8099ZM1021.79 63.1799H1018.9V61.4699H1018.84C1018.68 62.044 1018.33 62.5465 1017.85 62.894C1017.36 63.2414 1016.78 63.4129 1016.18 63.3799C1015.72 63.4058 1015.27 63.3336 1014.84 63.1681C1014.42 63.0026 1014.03 62.7478 1013.71 62.4207C1013.4 62.0937 1013.15 61.702 1013 61.2723C1012.84 60.8426 1012.78 60.3848 1012.82 59.9299V53.9999H1015.82V59.2399C1015.82 60.3299 1016.38 60.9099 1017.31 60.9099C1017.53 60.9103 1017.74 60.8642 1017.94 60.7745C1018.14 60.6848 1018.32 60.5536 1018.46 60.3898C1018.61 60.2259 1018.71 60.0332 1018.78 59.8246C1018.84 59.6159 1018.86 59.3961 1018.83 59.1799V53.9999H1021.83L1021.79 63.1799ZM1023.24 53.9999H1026.14V55.7699H1026.2C1026.36 55.2034 1026.7 54.7056 1027.17 54.3546C1027.65 54.0036 1028.22 53.819 1028.81 53.8299C1029.41 53.782 1030 53.9611 1030.48 54.3317C1030.95 54.7023 1031.26 55.2371 1031.36 55.8299H1031.42C1031.6 55.2308 1031.98 54.7092 1032.49 54.3471C1033 53.985 1033.62 53.803 1034.24 53.8299C1034.65 53.8162 1035.05 53.8885 1035.43 54.0421C1035.81 54.1956 1036.15 54.4271 1036.44 54.7213C1036.72 55.0156 1036.94 55.3661 1037.08 55.75C1037.21 56.1339 1037.27 56.5428 1037.24 56.9499V63.1999H1034.24V57.7499C1034.24 56.7499 1033.79 56.2899 1032.95 56.2899C1032.76 56.2883 1032.58 56.3269 1032.41 56.4031C1032.24 56.4793 1032.08 56.5913 1031.96 56.7316C1031.83 56.8719 1031.74 57.0371 1031.69 57.2162C1031.63 57.3954 1031.62 57.5842 1031.64 57.7699V63.1999H1028.79V57.7099C1028.79 56.7899 1028.34 56.2899 1027.52 56.2899C1027.33 56.29 1027.14 56.3302 1026.97 56.4079C1026.8 56.4857 1026.64 56.5992 1026.52 56.7409C1026.39 56.8826 1026.3 57.0494 1026.24 57.2303C1026.19 57.4111 1026.17 57.6018 1026.19 57.7899V63.1999H1023.19L1023.24 53.9999Z" fill="#B4B7C9"/>
<path d="M944.48 51.6199C943.971 50.4563 943.297 49.3718 942.48 48.3999C941.271 46.9202 939.763 45.7133 938.054 44.8585C936.346 44.0037 934.475 43.5205 932.567 43.4406C930.658 43.3606 928.754 43.6859 926.98 44.3949C925.206 45.1039 923.602 46.1805 922.274 47.554C920.946 48.9275 919.924 50.5666 919.275 52.3636C918.626 54.1605 918.365 56.0745 918.509 57.9795C918.653 59.8846 919.199 61.7375 920.111 63.4163C921.023 65.0952 922.28 66.5619 923.8 67.7199C924.775 68.4778 925.852 69.0939 927 69.5499C928.609 70.2093 930.331 70.5489 932.07 70.5499C935.659 70.542 939.099 69.1112 941.635 66.5712C944.171 64.0312 945.597 60.5893 945.6 56.9999C945.602 55.1484 945.221 53.3165 944.48 51.6199ZM932.06 46.1899C933.621 46.1897 935.164 46.531 936.58 47.1899C936.234 47.3391 935.871 47.4432 935.5 47.4999C934.276 47.677 933.143 48.245 932.269 49.1191C931.395 49.9932 930.827 51.1265 930.65 52.3499C930.572 53.036 930.26 53.6743 929.766 54.1571C929.272 54.6399 928.627 54.9375 927.94 54.9999C926.716 55.177 925.583 55.745 924.709 56.6191C923.835 57.4932 923.267 58.6265 923.09 59.8499C923.03 60.5023 922.751 61.1154 922.3 61.5899C921.52 59.9432 921.17 58.126 921.282 56.3076C921.394 54.4892 921.964 52.7286 922.939 51.1896C923.914 49.6507 925.262 48.3834 926.859 47.5057C928.455 46.6281 930.248 46.1685 932.07 46.1699L932.06 46.1899ZM923.79 63.9999C923.91 63.8899 924.03 63.7899 924.15 63.6699C925.039 62.8074 925.61 61.6688 925.77 60.4399C925.834 59.7491 926.143 59.1039 926.64 58.6199C927.118 58.1221 927.762 57.8162 928.45 57.7599C929.673 57.5828 930.806 57.0148 931.68 56.1407C932.555 55.2666 933.123 54.1333 933.3 52.9099C933.343 52.1874 933.653 51.5067 934.17 50.9999C934.66 50.5117 935.31 50.217 936 50.1699C937.124 50.0153 938.172 49.5156 939 48.7399C939.942 49.522 940.741 50.4628 941.36 51.5199C941.322 51.5712 941.278 51.6182 941.23 51.6599C940.752 52.1621 940.109 52.4747 939.42 52.5399C938.195 52.7139 937.06 53.2809 936.185 54.1555C935.311 55.0302 934.744 56.1652 934.57 57.3899C934.499 58.0783 934.193 58.7212 933.703 59.2096C933.212 59.6981 932.568 60.002 931.88 60.0699C930.653 60.2456 929.515 60.8125 928.636 61.6862C927.757 62.56 927.183 63.694 927 64.9199C926.946 65.4086 926.778 65.8779 926.51 66.2899C925.484 65.6807 924.565 64.9071 923.79 63.9999ZM932.06 67.8599C931.045 67.861 930.035 67.7196 929.06 67.4399C929.393 66.8179 929.61 66.14 929.7 65.4399C929.77 64.753 930.075 64.1113 930.563 63.6231C931.051 63.1349 931.693 62.83 932.38 62.7599C933.605 62.5848 934.74 62.0177 935.617 61.1434C936.493 60.2692 937.062 59.1347 937.24 57.9099C937.31 57.223 937.615 56.5813 938.103 56.0931C938.591 55.6049 939.233 55.3 939.92 55.2299C940.842 55.11 941.72 54.7667 942.48 54.2299C942.901 55.8278 942.951 57.501 942.626 59.1212C942.3 60.7414 941.608 62.2656 940.602 63.5767C939.596 64.8877 938.303 65.951 936.822 66.6848C935.341 67.4186 933.712 67.8035 932.06 67.8099V67.8599Z" fill="#B4B7C9"/>
<g filter="url(#filter0_dd_4632_11188)">
<rect x="1100" y="7" width="196" height="100" rx="8" fill="white"/>
<rect x="1100.5" y="7.5" width="195" height="99" rx="7.5" stroke="#E2E5F1"/>
<path d="M1162.52 52.25C1162.88 52.25 1163 52.38 1163 52.73V60.65H1167.07C1167.42 60.65 1167.55 60.78 1167.55 61.13V61.83C1167.55 62.18 1167.42 62.31 1167.07 62.31H1161.71C1161.36 62.31 1161.22 62.18 1161.22 61.83V52.73C1161.22 52.38 1161.36 52.25 1161.71 52.25H1162.52Z" fill="#B4B7C9"/>
<path d="M1171.1 55.74C1171.1 53.43 1172.56 52.04 1175.1 52.04C1177.64 52.04 1179.1 53.43 1179.1 55.74V58.82C1179.1 61.13 1177.63 62.52 1175.1 62.52C1172.57 62.52 1171.1 61.13 1171.1 58.82V55.74ZM1177.42 55.74C1177.42 54.44 1176.61 53.74 1175.15 53.74C1173.69 53.74 1172.89 54.45 1172.89 55.74V58.84C1172.89 60.15 1173.69 60.84 1175.15 60.84C1176.61 60.84 1177.42 60.12 1177.42 58.84V55.74Z" fill="#B4B7C9"/>
<path d="M1191.01 56.8C1191.4 56.8 1191.49 56.93 1191.49 57.28V59.18C1191.5 59.6275 1191.41 60.0718 1191.23 60.4801C1191.04 60.8885 1190.77 61.2506 1190.43 61.54C1189.58 62.2155 1188.51 62.5506 1187.43 62.48C1184.84 62.48 1183.43 61.09 1183.43 58.78V55.68C1183.43 53.4 1184.89 52 1187.43 52C1189.43 52 1190.73 52.79 1191.28 54.37C1191.31 54.4294 1191.33 54.4951 1191.33 54.5619C1191.33 54.6288 1191.31 54.695 1191.28 54.7551C1191.26 54.8153 1191.21 54.8679 1191.16 54.9087C1191.11 54.9494 1191.05 54.9773 1190.98 54.99L1190.2 55.26C1189.86 55.38 1189.72 55.31 1189.6 54.96C1189.43 54.5329 1189.13 54.1731 1188.74 53.9377C1188.34 53.7023 1187.88 53.6045 1187.43 53.66C1185.96 53.66 1185.16 54.37 1185.16 55.66V58.84C1185.16 60.15 1185.97 60.84 1187.43 60.84C1188.89 60.84 1189.79 60.17 1189.79 59.19V58.45H1187.62C1187.26 58.45 1187.13 58.31 1187.13 57.96V57.28C1187.13 56.93 1187.26 56.8 1187.62 56.8H1191.01Z" fill="#B4B7C9"/>
<path d="M1195.62 55.74C1195.62 53.43 1197.08 52.04 1199.62 52.04C1202.16 52.04 1203.62 53.43 1203.62 55.74V58.82C1203.62 61.13 1202.15 62.52 1199.62 62.52C1197.09 62.52 1195.62 61.13 1195.62 58.82V55.74ZM1201.93 55.74C1201.93 54.44 1201.12 53.74 1199.67 53.74C1198.22 53.74 1197.4 54.45 1197.4 55.74V58.84C1197.4 60.15 1198.21 60.84 1199.67 60.84C1201.13 60.84 1201.93 60.12 1201.93 58.84V55.74Z" fill="#B4B7C9"/>
<path d="M1208.33 52.54C1208.33 52.32 1208.4 52.25 1208.62 52.25H1209.08C1209.3 52.25 1209.35 52.32 1209.35 52.54V62.02C1209.35 62.24 1209.35 62.31 1209.08 62.31H1208.62C1208.4 62.31 1208.33 62.24 1208.33 62.02V52.54Z" fill="#B4B7C9"/>
<path d="M1218.46 52.25C1219.29 52.25 1220.09 52.5808 1220.68 53.1697C1221.27 53.7585 1221.6 54.5572 1221.6 55.39C1221.6 56.2228 1221.27 57.0215 1220.68 57.6103C1220.09 58.1992 1219.29 58.53 1218.46 58.53H1215.46V62.02C1215.46 62.24 1215.41 62.31 1215.2 62.31H1214.73C1214.52 62.31 1214.44 62.24 1214.44 62.02V52.54C1214.44 52.32 1214.52 52.25 1214.73 52.25H1218.46ZM1218.37 57.54C1218.66 57.54 1218.94 57.4836 1219.2 57.3741C1219.47 57.2645 1219.71 57.1039 1219.91 56.9015C1220.11 56.6991 1220.27 56.4587 1220.38 56.1943C1220.49 55.9298 1220.55 55.6463 1220.55 55.36C1220.55 55.0737 1220.49 54.7902 1220.38 54.5257C1220.27 54.2613 1220.11 54.0209 1219.91 53.8185C1219.71 53.6161 1219.47 53.4555 1219.2 53.3459C1218.94 53.2364 1218.66 53.18 1218.37 53.18H1215.37V57.54H1218.37Z" fill="#B4B7C9"/>
<path d="M1229.41 52.0501C1230.18 51.9649 1230.96 52.131 1231.63 52.5237C1232.3 52.9165 1232.83 53.5149 1233.13 54.2301C1233.21 54.3901 1233.13 54.5201 1232.97 54.6001L1232.53 54.8001C1232.35 54.8701 1232.28 54.8601 1232.17 54.6701C1231.94 54.1393 1231.55 53.6943 1231.06 53.3995C1230.56 53.1047 1229.98 52.9753 1229.41 53.0301C1227.72 53.0301 1226.8 53.7001 1226.8 54.9001C1226.79 55.2668 1226.91 55.6248 1227.15 55.9078C1227.38 56.1908 1227.71 56.3799 1228.07 56.4401C1228.61 56.6155 1229.17 56.723 1229.73 56.7601C1230.41 56.7965 1231.09 56.9347 1231.73 57.1701C1232.22 57.326 1232.65 57.6466 1232.93 58.0782C1233.22 58.5098 1233.34 59.026 1233.29 59.5401C1233.29 61.4101 1231.93 62.5401 1229.43 62.5401C1228.61 62.6339 1227.78 62.4439 1227.09 62.0017C1226.39 61.5596 1225.86 60.8919 1225.6 60.1101C1225.58 60.0745 1225.57 60.0354 1225.57 59.9956C1225.57 59.9558 1225.58 59.9164 1225.6 59.8801C1225.61 59.8438 1225.64 59.8115 1225.67 59.7856C1225.7 59.7596 1225.73 59.7407 1225.77 59.7301L1226.21 59.5701C1226.24 59.5559 1226.28 59.5491 1226.32 59.5501C1226.36 59.5511 1226.39 59.5599 1226.43 59.5759C1226.46 59.5919 1226.49 59.6147 1226.52 59.643C1226.54 59.6713 1226.56 59.7043 1226.57 59.7401C1226.79 60.305 1227.19 60.784 1227.71 61.1077C1228.22 61.4313 1228.82 61.5828 1229.43 61.5401C1231.32 61.5401 1232.25 60.8801 1232.25 59.5401C1232.27 59.1879 1232.16 58.8408 1231.95 58.5606C1231.73 58.2805 1231.42 58.0854 1231.08 58.0101C1230.56 57.8558 1230.03 57.7618 1229.49 57.7301L1228.41 57.5901C1228.07 57.5184 1227.74 57.4282 1227.41 57.3201C1227.09 57.2222 1226.78 57.0626 1226.52 56.8501C1226.26 56.6099 1226.05 56.3143 1225.91 55.9842C1225.77 55.6541 1225.71 55.2977 1225.72 54.9401C1225.79 53.1901 1227.1 52.0501 1229.41 52.0501Z" fill="#B4B7C9"/>
<path d="M1238.68 58.89C1238.72 59.5972 1239.03 60.2615 1239.55 60.7472C1240.07 61.2329 1240.75 61.5033 1241.46 61.5033C1242.16 61.5033 1242.85 61.2329 1243.36 60.7472C1243.88 60.2615 1244.19 59.5972 1244.23 58.89V52.54C1244.23 52.32 1244.3 52.25 1244.52 52.25H1244.98C1245.2 52.25 1245.27 52.32 1245.27 52.54V58.88C1245.27 61.15 1243.93 62.52 1241.46 62.52C1238.99 62.52 1237.65 61.15 1237.65 58.88V52.54C1237.65 52.32 1237.72 52.25 1237.93 52.25H1238.4C1238.61 52.25 1238.68 52.32 1238.68 52.54V58.89Z" fill="#B4B7C9"/>
<path d="M1259.07 52.25C1259.29 52.25 1259.36 52.32 1259.36 52.54V62.02C1259.36 62.24 1259.29 62.31 1259.07 62.31H1258.65C1258.44 62.31 1258.37 62.24 1258.37 62.02V56.25C1258.37 55.4105 1258.43 54.5719 1258.54 53.74H1258.48C1258.17 54.5007 1257.8 55.2391 1257.39 55.95L1255.24 59.74C1255.21 59.8058 1255.17 59.862 1255.11 59.9013C1255.05 59.9405 1254.98 59.961 1254.91 59.96H1254.63C1254.56 59.9604 1254.49 59.9397 1254.43 59.9007C1254.37 59.8616 1254.32 59.8058 1254.29 59.74L1252.11 55.91C1251.72 55.2093 1251.39 54.4806 1251.11 53.73H1251.05C1251.15 54.5695 1251.21 55.4143 1251.21 56.26V62.02C1251.21 62.24 1251.14 62.31 1250.92 62.31H1250.53C1250.31 62.31 1250.24 62.24 1250.24 62.02V52.54C1250.24 52.32 1250.31 52.25 1250.53 52.25H1250.89C1250.97 52.2424 1251.06 52.2603 1251.13 52.3015C1251.2 52.3427 1251.26 52.4051 1251.29 52.48L1254.79 58.7L1258.27 52.54C1258.38 52.33 1258.44 52.3 1258.66 52.3L1259.07 52.25Z" fill="#B4B7C9"/>
<path d="M1144.73 60.79V68.02C1144.73 68.2972 1144.62 68.563 1144.42 68.7589C1144.23 68.9549 1143.96 69.065 1143.69 69.065C1143.41 69.065 1143.14 68.9549 1142.95 68.7589C1142.75 68.563 1142.64 68.2972 1142.64 68.02V60.8C1142.93 61.0125 1143.28 61.1311 1143.64 61.14C1144.03 61.1512 1144.42 61.0277 1144.73 60.79ZM1153.63 58.7C1153.36 58.7 1153.11 58.8054 1152.92 58.9929C1152.74 59.1804 1152.63 59.4348 1152.63 59.7V60.96C1152.63 61.2372 1152.74 61.503 1152.94 61.6989C1153.13 61.8949 1153.4 62.005 1153.67 62.005C1153.95 62.005 1154.22 61.8949 1154.41 61.6989C1154.61 61.503 1154.72 61.2372 1154.72 60.96V59.75C1154.73 59.6066 1154.7 59.4632 1154.65 59.3296C1154.6 59.196 1154.52 59.0752 1154.42 58.9756C1154.31 58.876 1154.19 58.7998 1154.05 58.7522C1153.92 58.7047 1153.77 58.6869 1153.63 58.7ZM1140.37 63.53C1140.01 63.5192 1139.66 63.4008 1139.37 63.19V70.44C1139.37 70.7185 1139.48 70.9856 1139.68 71.1825C1139.87 71.3794 1140.14 71.49 1140.42 71.49C1140.7 71.49 1140.97 71.3794 1141.16 71.1825C1141.36 70.9856 1141.47 70.7185 1141.47 70.44V63.24C1141.14 63.4511 1140.76 63.5527 1140.37 63.53ZM1150.37 56.53C1150.23 56.5232 1150.1 56.5441 1149.97 56.5913C1149.84 56.6385 1149.73 56.7111 1149.63 56.8046C1149.53 56.8982 1149.45 57.0107 1149.4 57.1354C1149.35 57.2601 1149.32 57.3944 1149.32 57.53V63.1C1149.32 63.3785 1149.43 63.6456 1149.63 63.8425C1149.82 64.0394 1150.09 64.15 1150.37 64.15C1150.65 64.15 1150.92 64.0394 1151.11 63.8425C1151.31 63.6456 1151.42 63.3785 1151.42 63.1V57.6C1151.43 57.4557 1151.4 57.3114 1151.35 57.177C1151.3 57.0426 1151.22 56.9213 1151.11 56.8215C1151.01 56.7217 1150.88 56.6457 1150.75 56.5989C1150.61 56.552 1150.46 56.5353 1150.32 56.55L1150.37 56.53ZM1147.05 58.67C1146.67 58.6674 1146.31 58.5487 1146 58.33V65.6C1146 65.8785 1146.11 66.1456 1146.31 66.3425C1146.5 66.5394 1146.77 66.65 1147.05 66.65C1147.33 66.65 1147.6 66.5394 1147.79 66.3425C1147.99 66.1456 1148.1 65.8785 1148.1 65.6V58.34C1147.78 58.5763 1147.4 58.6995 1147 58.69L1147.05 58.67ZM1138.1 64.24V43.93C1138.1 43.6824 1138 43.4459 1137.82 43.2718C1137.65 43.0977 1137.41 43 1137.16 43H1136.94C1136.69 43 1136.45 43.0977 1136.28 43.2718C1136.1 43.4459 1136 43.6824 1136 43.93V64.24C1136 64.4893 1136.1 64.7284 1136.28 64.9047C1136.45 65.081 1136.69 65.18 1136.94 65.18H1137.16C1137.41 65.18 1137.65 65.081 1137.82 64.9047C1138 64.7284 1138.1 64.4893 1138.1 64.24ZM1140.48 62.76H1140.26C1140.01 62.76 1139.77 62.661 1139.6 62.4847C1139.42 62.3084 1139.32 62.0693 1139.32 61.82V46.35C1139.32 46.1024 1139.42 45.8659 1139.6 45.6918C1139.77 45.5177 1140.01 45.42 1140.26 45.42H1140.48C1140.73 45.42 1140.97 45.5177 1141.14 45.6918C1141.32 45.8659 1141.42 46.1024 1141.42 46.35V61.84C1141.42 62.0893 1141.32 62.3284 1141.14 62.5047C1140.97 62.681 1140.73 62.78 1140.48 62.78V62.76ZM1143.79 60.38H1143.56C1143.31 60.38 1143.08 60.282 1142.9 60.1076C1142.73 59.9332 1142.63 59.6967 1142.63 59.45V48.75C1142.63 48.627 1142.65 48.505 1142.7 48.391C1142.74 48.277 1142.81 48.1733 1142.9 48.0859C1142.99 47.9985 1143.09 47.9291 1143.2 47.8817C1143.32 47.8344 1143.44 47.81 1143.56 47.81H1143.79C1144.04 47.8126 1144.27 47.9128 1144.45 48.0888C1144.62 48.2648 1144.72 48.5024 1144.72 48.75V59.45C1144.72 59.6967 1144.62 59.9332 1144.45 60.1076C1144.27 60.282 1144.04 60.38 1143.79 60.38ZM1147.1 57.93H1146.89C1146.64 57.93 1146.4 57.8324 1146.23 57.6582C1146.05 57.4841 1145.95 57.2476 1145.95 57V51.24C1145.94 51.1116 1145.96 50.9829 1146 50.8618C1146.05 50.7408 1146.12 50.6299 1146.2 50.5362C1146.29 50.4424 1146.4 50.3678 1146.52 50.3168C1146.63 50.2659 1146.76 50.2397 1146.89 50.24H1147.11C1147.36 50.24 1147.6 50.339 1147.77 50.5153C1147.95 50.6916 1148.05 50.9307 1148.05 51.18V56.98C1148.05 57.1043 1148.03 57.2276 1147.98 57.3428C1147.93 57.458 1147.87 57.5628 1147.78 57.6512C1147.69 57.7395 1147.59 57.8096 1147.47 57.8575C1147.36 57.9054 1147.23 57.93 1147.11 57.93H1147.1ZM1150.42 55.78H1150.2C1149.95 55.78 1149.71 55.681 1149.54 55.5047C1149.36 55.3284 1149.26 55.0893 1149.26 54.84V53.35C1149.26 53.1024 1149.36 52.8659 1149.54 52.6918C1149.71 52.5176 1149.95 52.42 1150.2 52.42H1150.42C1150.67 52.42 1150.91 52.5176 1151.08 52.6918C1151.26 52.8659 1151.36 53.1024 1151.36 53.35V54.84C1151.36 55.0876 1151.26 55.3252 1151.09 55.5012C1150.91 55.6772 1150.68 55.7774 1150.43 55.78H1150.42Z" fill="#B4B7C9"/>
</g>
<defs>
<filter id="filter0_dd_4632_11188" x="1089" y="0.4" width="218" height="122" filterUnits="userSpaceOnUse" color-interpolation-filters="sRGB">
<feFlood flood-opacity="0" result="BackgroundImageFix"/>
<feColorMatrix in="SourceAlpha" type="matrix" values="0 0 0 0 0 0 0 0 0 0 0 0 0 0 0 0 0 0 127 0" result="hardAlpha"/>
<feMorphology radius="1" operator="erode" in="SourceAlpha" result="effect1_dropShadow_4632_11188"/>
<feOffset dy="2"/>
<feGaussianBlur stdDeviation="3.2"/>
<feColorMatrix type="matrix" values="0 0 0 0 0.0745098 0 0 0 0 0.0627451 0 0 0 0 0.133333 0 0 0 0.03 0"/>
<feBlend mode="normal" in2="BackgroundImageFix" result="effect1_dropShadow_4632_11188"/>
<feColorMatrix in="SourceAlpha" type="matrix" values="0 0 0 0 0 0 0 0 0 0 0 0 0 0 0 0 0 0 127 0" result="hardAlpha"/>
<feMorphology radius="1" operator="erode" in="SourceAlpha" result="effect2_dropShadow_4632_11188"/>
<feOffset dy="4.4"/>
<feGaussianBlur stdDeviation="6"/>
<feColorMatrix type="matrix" values="0 0 0 0 0.0745098 0 0 0 0 0.0627451 0 0 0 0 0.133333 0 0 0 0.06 0"/>
<feBlend mode="normal" in2="effect1_dropShadow_4632_11188" result="effect2_dropShadow_4632_11188"/>
<feBlend mode="normal" in="SourceGraphic" in2="effect2_dropShadow_4632_11188" result="shape"/>
</filter>
</defs>
</svg>
